<svg version="1.2" xmlns="http://www.w3.org/2000/svg" viewBox="0 0 2160 1620" width="2160" height="1620">
	<title>WOKE26</title>
	<style>
		.s0 { fill: #a22929 } 
		.s1 { fill: #5d1313 } 
		.s2 { fill: #cf7d30 } 
		.s3 { fill: #e4c02a } 
	</style>
	<g id="Layer 1">
		<path id="Shape 4" fill-rule="evenodd" class="s0" d="m515.38 517.25c15.59-2.98 31.29 2.47 35.52 8.97 8.54 13.1 3.61 23.46 0.25 28.17-1.27 1.79-2.32 2.76-2.32 2.76 0 0-10.43 9.03-12.83-18.15-0.08-0.94-3.31 3.74-4.42 6.84-2.05 5.72-0.88 31.45 15.42 40.16 16.3 8.71 1 3 1 3 0 0-21.83 36.31 6 72 24.31 31.17-10.17 2.28-21.69-18.62-1.67-3.03-2.85-5.89-3.31-8.38-3.59-19.64-8.62-90.33-32-97-23.38-6.67-53.88-13.96-66-51q-0.87-2.66-1.47-4.94l17.85-12.47c0.4 0.26 0.62 0.41 0.62 0.41 0 0 13.96 58.47 67.38 48.25z"/>
		<path id="Shape 2" fill-rule="evenodd" class="s1" d="m703 621l-93.44 65.58c-5.04-29.07 0.37-45.06 9.44-65.58 5.33-12.05 33.4-58.24 35.99-101.44 1.94-32.35-11.67-65.88-52.99-66.56-65.68-1.09-88.09-16.1-95.7-25.57l97.05-67.81c5.29 8.69 15.28 23.4 26.23 30.77 14.43 9.71 34.18 13.75 42.42 15.61 14.76 3.33 27.43 16.04 31 19.89zm-30-123c-6.64 0-12-5.37-12-12 0-6.64 5.36-12 12-12 6.64 0 12 5.36 12 12 0 6.63-5.36 12-12 12zm-15 103c-6.64 0-12-5.37-12-12 0-6.64 5.36-12 12-12 6.64 0 12 5.36 12 12 0 6.63-5.36 12-12 12zm-85-159c-6.64 0-12-5.37-12-12 0-6.64 5.36-12 12-12 6.64 0 12 5.36 12 12 0 6.63-5.36 12-12 12z"/>
		<path id="Shape 18" fill-rule="evenodd" class="s2" d="m255 603l68.16-47.62 2.84 1.62c0 0-62.69 98.68-69.52 133.2q-0.5 2.52-0.93 3.94z"/>
		<path id="Shape 5" fill-rule="evenodd" class="s0" d="m516.8 630.33l-4.8-25.33c0 0-43.58-22.39-34.65-41.31 8.4-17.81 22.77-6.4 23.65 3.31 0.88 9.71-12.12 4.59-12 1 0.12-3.59-3.27 10.82 10 10 13.27-0.82 11.19-19.57 5-26-6.19-6.43-24.02-16.14-38 2-13.98 18.14 3.63 39.62 11 44 21.32 12.65 39.48 31.27 39.8 32.33z"/>
		<path id="Shape 7" fill-rule="evenodd" class="s0" d="m511 638c0 0 14.65 11.56 14.84 23.52 0.08 4.5-6.67 17.13-17.84 16.48-14.49-0.85-19.66-26.2-21.38-36.24-1.51-8.83-3.51-16.89-4.62-26.76-1.39-12.37 6.44 6.16 6.44 6.16 0 0 4.11 30.82 17.06 34.58 10.28 2.99 8.56-10.11 5.5-17.74z"/>
		<path id="Shape 8" fill-rule="evenodd" class="s2" d="m401 629c0 0 17.41-35.03 48-28 30.59 7.03 28 39 28 39 0 0-15.78-22.19-52.91-17.54-10.37 1.29-22.57 6.24-23.09 6.54z"/>
		<path id="Shape 10" fill-rule="evenodd" class="s2" d="m414 509c0 0 39.98 15.32 39 46-0.98 30.68-62 63-62 63 0 0 42.75-35.64 23-109z"/>
		<path id="Shape 14" fill-rule="evenodd" class="s0" d="m479 739c0 0 23.77-0.53 35-5 1.96-0.78-7.2-8.08-11.44-23.91-4.46-16.67-9.69-34.93-8.47-20.78 2.25 25.95-15.09 49.69-15.09 49.69z"/>
		<path id="Shape 13" fill-rule="evenodd" class="s2" d="m402 764c0 0 8.13-9.65 21-13 12.87-3.35 40.69-11.67 49-20 8.31-8.33 13.5-39.1 14-45 0.5-5.9-4.06-5.86-39.66 3.54-14.76 3.9-25.44 20.59-29 33.6-6.21 22.61-15.8 38.38-15.34 40.86z"/>
		<path id="Shape 16" fill-rule="evenodd" class="s3" d="m406 673c20.28-16.46 41.64-16.35 60-6 18.13 10.22-52.9-26.71-72.29 82.77q-0.37 2.08-0.71 4.23c-2.3 14.42-4.45 26.12-6.45 35.54 5.71 16.61 48.77-13.15 83.2-4.85l-67.2 47.16c-5.6-9.76-12.16-18.92-19.53-27.33q-0.05 0.19-0.09-0.09c-10.05-11.44-21.62-21.51-34.4-29.88 7.37-16.49 39.59-87.04 57.47-101.55z"/>
		<path id="Shape 11" fill-rule="evenodd" class="s2" d="m346.37 713.13c14.46-30.18 23.07-54.19 35.63-63.13 26.77-19.05 75.91-23.58 103 12 27.09 35.58-5 2-5 2 0 0-57.13-42.54-94 18-30.61 50.25-41.41 79.77-44.19 88.36q-10.24-6.05-21.34-10.63c3.96-6.18 15.23-24.33 25.9-46.6z"/>
		<path id="Shape 15" fill-rule="evenodd" class="s2" d="m398 780c0 0 26.58-18.79 41-21 14.42-2.21 83-10 83-10l-38.87 26.41c0 0-42.87-10.13-85.13 4.59z"/>
		<g id="Batang 2">
			<g id="Bulan">
				<path id="Shape 55" fill-rule="evenodd" class="s3" d="m1137.12 606.31c-67.21-0.83-120.88-55.83-120.06-123.05q0.08-5.71 0.66-11.29c6.45 36.37 32.27 65.98 66.46 77.8q-0.61 1.56-1.18 3.23c-5.12 15.11 0 30 0 30 0 0 8.07-4.52 14-17 1.87-3.94 3.36-8.09 4.52-11.91q7.73 1.21 15.81 1.22c18.93 0 36.62-5.17 51.76-14.18 1.09 2.31 2.39 4.63 3.91 6.87 9.23 13.59 28 20 28 20 0 0-3.02-15.12-12-30-1.71-2.84-3.58-5.25-5.47-7.3 18.73-16.2 31.44-39.16 34.35-65.13q1.04 0.27 2.12 0.43c13.35 1.96 25-5 25-5 0 0-7.01-9.29-20-12-2.25-0.47-4.48-0.68-6.65-0.7-1.97-34.7-21.35-64.68-49.56-81.34 53.16 13.53 92.08 61.96 91.38 119.29-0.83 67.21-55.83 120.88-123.05 120.06z"/>
				<path id="Shape 57" fill-rule="evenodd" class="s0" d="m1076 439c0 0 43.53-11.76 80.5-55.25 4.88-5.75 4.25-5.58 10.17 0.14 4.01 3.88 10.9 10.67 10.9 10.67 0 0-37.72 46.31-71.57 47.44-31.74 1.06-30-3-30-3z"/>
				<path id="Shape 58" fill-rule="evenodd" class="s2" d="m1114 453c0 0 13.67 0.04 28-11 14.33-11.04 37.52-41.71 49-40 11.48 1.71 13.52 21.2 13 25-0.52 3.8 1.51-7.52-29 18-30.51 25.52-57.47 10.08-61 8z"/>
				<path id="Shape 59" fill-rule="evenodd" class="s2" d="m1200 440c5.18-13.16 3.76 61.29-39 64q-3.76 0.23-6.75 0.05c5.13-2.09 16.16-9.76 15.54-20.03-0.71-11.79-9.53-16.9-14.95-18.29 5.84-1.92 40.42-13.69 45.16-25.73z"/>
				<path id="Shape 60" fill-rule="evenodd" class="s2" d="m1040 494c0 0 2.21 11.18 5 17 2.79 5.82 12.15 15.22 20 15 7.85-0.22 17.23-4.9 18-17 0.77-12.1-0.64-16.64 8-20 8.64-3.36 15.41-3.5 20 3 4.59 6.5-4.19 8.1-7 5-2.81-3.1 0.4 25.48 12 34 11.6 8.52 25.16 1.32 28-6 2.84-7.32 10.53-24.52-21-40-31.53-15.48-25-36-25-36 0 0-4.22 9.54-4 13 0.22 3.46-12.04-13.57-20-3-7.96 10.57-1.16 34.21-11 42-9.84 7.79-23-7-23-7z"/>
				<path id="Shape 61" fill-rule="evenodd" class="s2" d="m1113 464c0 0 4.05 5.68 14 8 9.95 2.32 19.05-1.03 23 6 3.95 7.03 2 18 2 18 0 0-3.66-14.11-23.45-18.73-11.33-2.64-15.55-13.27-15.55-13.27z"/>
				<path id="Shape 62" fill-rule="evenodd" class="s0" d="m1028 468c0 0 30.35-21.15 34-22 3.65-0.85-11 38-11 38 0 0 1.04-20.51-23-16z"/>
			</g>
			<g id="Matahari">
				<path id="Shape 109" fill-rule="evenodd" class="s0" d="m837 749c0 0 88.85-97.44 171-87 82.15 10.44 147.17 32.73 232 7q3.05-0.93 5.92-1.79l-70.16 49.08c-14.03 1.86-30.04 3.61-46.09 4.57-36.27 2.19-128.05-16.25-179.17-6.41-51.11 9.84-61.07 10.38-113.5 34.55z"/>
				<path id="Shape 111" fill-rule="evenodd" class="s1" d="m764 700c0 0-13.98-10.78-8-28 5.98-17.22-10.81 17.98-9 39 1.81 21.02 0.07 54.56-46 58-22.84 1.7-39.1-17.2-38.84-35.4 0.09-5.74 1.79-11.41 4.68-16.26l19.88-13.88c3.87-0.46 7.99 0.04 12.21 1.77 3.87 1.58 9.2 3.54 11.36 5.8 11.08 11.55-1.54-1.67-19.61 2.03-8.65 1.77-12.16 16.72-9.28 24.77 5.8 16.2 23.2 19.39 37.23 6.66 21.49-19.51 0.43-57.49 15.37-71.49 1.89-1.78 4.02-4.15 6.28-6.93l56.54-39.48z"/>
				<path id="Shape 182" fill-rule="evenodd" class="s2" d="m805.96 686.08c7.12-7.06 18.96-16.14 32.04-15.08 21.11 1.71-20.62 50.29-29.24 56.67-4.03 2.99-5.95 3.89-9.5 5.92-2.31 1.33 5.6 2.86 12.71 1.02 10.89-2.81 45.57-31.95 57.58-47.91 22.41-29.78 40.98-82.13 33.38-79.83-8.31 2.53-12.98 4.49-32.83 14.92-8.03 4.21-18.11 7.99-34.46 19.17-19.04 13.01-27.04 35.51-29.68 45.12z"/>
				<path id="Shape 182" fill-rule="evenodd" class="s0" d="m1307.58 598.21c-12.19 10.24-75.43 61.29-141.58 62.79-40.51 0.92-86.1-6.37-124.25-11.02q-2.59-1.87-5.75-3.98c-64.86-43.35-117-10-117-10 34.84-11.67 53.67 2.46 52 7-0.92 2.5-10.52 7.65-18.99 11.78-27.95 9.95-57.25 28.33-100.01 68.22-55.01 51.32-86.12 84.76-125 95-38.88 10.24-55.42 3.84-72.93-4.65-16.41-7.95-46.09-36.68-53.07-49.35q-0.14-0.25-0.27-0.5l38.53-26.9c8.38 15.56 32.79 52.82 71.74 46.4 48.68-8.02 76.59-76.35 115.21-176.93l155.36-108.48c6.44 80.27 72.97 143.7 155.11 144.71 87.13 1.07 158.41-68.49 159.48-155.61 0.79-64.15-36.72-119.71-91.32-144.98l-18.88 13.18 56-39.1c26.75 16.37 49.26 38.9 65.62 65.61zm-416.37-9.45c71.96-34.08 130.38 19.23 106.78-1.38-23.6-20.61-30.82-63.84-30.82-63.84-18.93 33.31-147.92 99.29-75.96 65.22zm-85.25 97.33c7.12-7.06 18.96-16.14 32.04-15.08 21.11 1.71-20.62 50.29-29.24 56.67-4.03 2.99-5.95 3.89-9.5 5.92-2.31 1.33 5.6 2.86 12.71 1.02 10.89-2.81 45.57-31.95 57.58-47.91 22.41-29.78 40.98-82.13 33.39-79.83-8.32 2.53-12.99 4.48-32.84 14.92-8.03 4.21-18.11 7.98-34.46 19.16-19.03 13.02-27.04 35.51-29.68 45.13zm9.04-36.08c-11.09 21.34-13.48 53.46-23 64 9.52-10.54 11.91-42.66 23-64zm85 12c3.48-26.72 17-62 17-62 0 0-13.52 35.28-17 62z"/>
				<path id="Shape 55 copy 2" fill-rule="evenodd" class="s2" d="m1000.45 484.41c-0.21 75.79 60.52 137.57 136.47 138.5 76.4 0.94 138.91-60.06 139.85-136.46 0.74-60.36-37.18-112.06-90.81-131.56l18.88-13.18c54.6 25.27 92.11 80.83 91.32 144.98-1.07 87.12-72.35 156.68-159.48 155.61-82.14-1.01-148.67-64.44-155.11-144.71z"/>
				<path id="Shape 182" fill-rule="evenodd" class="s1" d="m1307.58 269.97c0 87.67 0 81.1 0 81.1 0.64 0.3-37.82-37.9-50.17-46.07z"/>
				<path id="Shape 121" fill-rule="evenodd" class="s2" d="m691.3 948.96c-1.35 21.53-35.34 42.03-49.86 40.57-13.5-1.36-62.44-38.53-62.44-38.53 118.1 28.84 114.18-31.85 112.3-2.04z"/>
				<path id="Shape 121" fill-rule="evenodd" class="s0" d="m571 961c0 0 38.43 18.51 43 40 4.57 21.49-17.2 35.67-28 36-7.89 0.24 7.19-4.27 6.15-27.09-0.54-12.04-9.94-32.3-21.15-48.91z"/>
				<path id="Shape 121" fill-rule="evenodd" class="s2" d="m572 1097c-0.58-24.57 42.38-62.15 36-58-6.38 4.15-74 40-74 40 38.5-13.29 38.58 42.57 38 18z"/>
				<path id="Shape 121" fill-rule="evenodd" class="s0" d="m576 799c-6.14 0-11.51-3.24-14.5-8.11l27.84-19.44c2.29 2.9 3.66 6.56 3.66 10.55 0 9.4-7.6 17-17 17z"/>
				<path id="Shape 121" fill-rule="evenodd" class="s0" d="m577 1135c0 0-1.27-60.1 37-86 38.27-25.9 52.38-42.82 70.88-61.5 19.81-19.98 47.23-63.86 49.12-77.5 1.89-13.64 4.54 13.21 6 18 1.46 4.79-14.73 41.91-41.32 70.3-10.63 11.35-70.06 64.94-54.68 86.7q0.77 1.08 1.62 2.14l-68.37 47.83z"/>
				<path id="Shape 121" fill-rule="evenodd" class="s1" d="m657 1073c0 0-2.33-11.2 14-27 16.33-15.8 31.02-31.2 34-37 2.98-5.8-6.2 34.38-23 50-16.8 15.63-18.37 12.88-25 14z"/>
				<path id="Shape 120" fill-rule="evenodd" class="s0" d="m764 815c-0.99-6.5 19.5 32.2 29.89 34.3 1.71 0.34-11.55 69.14 93.11 66.7q1.73-0.04 3.37-0.07l-68.41 47.86c-16.97 4.38-30.48 7.21-34.96 7.21-2.34 0-3.52-1.61-4.03-4.23 8.74-6.77 21.58-21.36 16.03-41.77-7.79-28.65-22.74-29.65-22.74-29.65-6.06-0.5-12.53 10.64-12.11 17.12 0.23 3.49 3.64 7.24 7.51 10.41-23.05-1.43-25.9-15.27-25.66-18.88 0.21-3.16-0.21-0.32 8.62-5.84 8.91-5.57 18.76-21.8 9.38-83.16z"/>
				<path id="Shape 121" fill-rule="evenodd" class="s1" d="m774 952c-13.77 19.32-26.6 35.16-41 42-8.13 3.86-16.91 5.8-12.79-7.22 4.86-15.33 19.05-32.62 29.79-44.78q0.28-0.32 0.56-0.61c-3.41 7.45-6.52 16.31-4.56 20.61 3.31 7.27 19.5-3.03 31.44-15.03q-1.39 2.16-3.44 5.03z"/>
				<path id="Shape 118" fill-rule="evenodd" class="s1" d="m997 839l10.23-4.82-85.52 59.83q-5.61 0.99-11.71 1.99c-36.26 5.94-47.97 5.43-65.26-0.59-17.36-6.03-24.73-23.08-27.24-31.68-3.05-10.44 5.1-47.79 38.81-54.99 33.71-7.2 41.69 16.26 41.69 16.26l0.25 0.59c-4.54-2.95-9.27-5.48-12.25-5.59-7.27-0.26-21.01-2.03-26.54 19.1-5.53 21.12 33.79 24.04 39.54 23.9 5.21-0.13 54.02-0.43 97.65-23.92z"/>
				<path id="Shape 119" fill-rule="evenodd" class="s0" d="m850 758c0 0 15.99 13.74-9 47-28.62 38.1-65.95 24.61-49.06-9.87 0.52 3.54 2.04 6.14 3.97 8 3.62 3.49 8.65 4.35 11.09 3.87 4.39-0.87 16.67-6.55 24-25 7.33-18.45-11-6-11-6 1.38-4.26 3.26-7.59 5.41-10.18 9-10.9 22.59-8.82 22.59-8.82l-0.06-0.03q1.15 0.42 2.06 1.03z"/>
				<path id="Shape 116" fill-rule="evenodd" class="s1" d="m978 791c-0.88 14.08-21.87 30.3-35.19 39.23-6.25 4.19-10.81 6.77-10.81 6.77-2.03-24.6 20.18-46.34 34.47-51.56-3.84 4.68-10.04 13.34-7.47 17.56 3.42 5.62 16.75-8.51 18.77-14.95q0.33 1.25 0.23 2.95z"/>
				<path id="Shape 115" fill-rule="evenodd" class="s1" d="m972.52 828.57c-10.98 2.35-15.27 4.37-8.13-2.05 20.24-18.21 20.61-27.52 20.61-27.52l60.98 8.08-7.41 5.18c-10.53 2.1-46.91 12.22-66.05 16.31z"/>
				<path id="Shape 113" fill-rule="evenodd" class="s0" d="m973 734c0 0-105.24 49.39-112 51-6.07 1.45 10.78-6.51 6.98-21.93-1.18-4.78-4.69-8.48-9.76-10.18-3.86-1.3 34.16-11.76 54.78-15.4 29.29-5.18 59.39-3.6 60-3.49z"/>
				<path id="Shape 114" fill-rule="evenodd" class="s1" d="m881 785c0 0 86.41-34.19 89-37 2.59-2.81-35.92 52-48 57-4.02 1.67-2.93-0.33-2.01-3.62 1.83-6.57 2.96-18.34-38.99-16.38z"/>
				<path id="Shape 112" fill-rule="evenodd" class="s0" d="m677 837c37.32 7.52-65.07 5.97-94.81-24.53 12.4-2.33 22.14-12.15 24.34-24.6 11.98 15.01 37.22 42.43 70.47 49.13z"/>
				<path id="Shape 110" fill-rule="evenodd" class="s1" d="m982 733c0 0 49.62 4.55 70 9 19.45 4.25 58.86 11.46 74.87 8.5l-48.14 33.67c-17.86-3.85-41.2-9.24-51.73-13.17-18.26-6.82-36.57-12.49-46-14-3.17-0.51-3.47 0.83-2.38-6.3 1.08-7.03 3.38-17.7 3.38-17.7z"/>
				<path id="Shape 98" fill-rule="evenodd" class="s3" d="m427 1008c0 0 33.94 27.8 60.56 90.97 25.54 60.58 63.29 27.9 51.84 10.28q-1.22-1.86-2.53-3.11c-4.22-4.01-9.16-3.58-13.87-1.14-7.3 3.78 8.6-17.96 21-13 12.4 4.96 20.32 21.9 17 34-3.32 12.1-19.27 30.02-37 30-17.73-0.02-47.57-11.96-58.94-55.3-10.44-39.79-25.59-76.19-38.06-92.7z"/>
				<path id="Shape 98" fill-rule="evenodd" class="s2" d="m449 1109c4.05 71.44-11.62 83.71-10.06 122.72l-29.25 20.47c-2.57-22.91-20.77-178.75-44.01-207.73 16.39-14 30.06-31.08 40.12-50.36 7.93 9.63 39.62 51.79 43.2 114.9zm1.2 112.94c-0.89 1.52-0.6-5.11-0.06-19.01 0.48-12.16 2.75-25.41 5.56-36.98l-5.42 55.84q-0.04 0.07-0.08 0.15z"/>
				<path id="Shape 100" fill-rule="evenodd" class="s0" d="m309.23 1225.94c-2.51 18.77-2.18 38.08-21.65 53.13-10.57 8.16-23.52 11.81-30.97 10.39l-0.13-22.78c1.32-0.22 2.53-0.39 3.52-0.68 10.47-3 12.82-3.88 24.78-10.58 23.16-12.96 27.08-49.09 24.45-29.48zm10.77 6.06c0 0-0.02 53.16 14 72q0.28 0.38 0.55 0.75l-26.05 18.22q-0.26-0.47-0.5-0.97c-8.97-18.33 12-90 12-90z"/>
				<path id="Shape 106" fill-rule="evenodd" class="s2" d="m298 1132c5.34 19.47 16.66 55.42 11 71-5.5 15.12-26.56 45.53-52.6 50.61l-0.08-15.01c8.05-5.23 17.29-11.79 22.48-17.31 17.44-18.53 6.72-64.39 4.2-77.29-5.19-26.54-8.45-47.91-10.14-59.96q10.69-1.06 20.93-3.41c-0.34 13.49-0.29 34.96 4.21 51.37z"/>
				<path id="Shape 106" fill-rule="evenodd" class="s3" d="m541.79 804.65l1.53-0.19q-0.35-0.21-0.68-0.4zm-1.96 257.48l-16.83-1.13-60.53-39.55q0.11 0.19 0.22 0.38c14.51 25.76 30.66 38.97 37.31 41.17 10.6 3.49 32.74 1.01 39.83-0.87zm-283.57 164.9c7.07-4.21 14.93-10.66 20.24-20.24 6.83-12.34-1.25-43.12-3.82-62.08-3.46-25.49-6.83-48.55-8.53-60.03q-4.08 0.19-8.21 0.19-0.24 0-0.49 0z"/>
				<path id="Shape 105" fill-rule="evenodd" class="s2" d="m424.33 929.59c-0.68 8.58-2 16.99-3.92 25.16 11.16 1.28 34.57 1.25 62.69 5.47 16.87 2.53 36.92 2.85 53.9 13.78 49.85 32.07 25.27 81.7 29 78 3.73-3.7 20.27-32.99 12-56-8.27-23.01-27.67-44.2-46-50-15.27-4.83-64.5-8.9-73.59-9.91-13.81-1.54-25.86-4.43-34.08-6.5z"/>
				<path id="Shape 103" fill-rule="evenodd" class="s3" d="m499.13 862.67c10.63 1.03 22.51 2.66 33.85 5.29 32.34 7.48 99.64 16.52 122.02 17.04 22.38 0.52 67.05-0.31 79.85-45.28 5.83-20.45 4.66-17.94 9.4-2.72 7.95 25.54-11.19 74.85-45.98 91.7-31.26 15.15-85.68 34.2-200.27-13.7-29.66-12.4-54.06-7.28-73.18 5.44q0.05-2.24 0.06-4.5c0-9.56-0.79-18.93-2.31-28.05l43.2-30.16c10.6 1.89 23.58 4 33.36 4.94z"/>
				<path id="Shape 102" fill-rule="evenodd" class="s3" d="m481.51 969.11c20.15 3.14 38.63 6.67 44.54 9.57 12.41 6.1 31.3 12.82 33.95 61.32 0.5 9.09 1 13.53 1.15 14.73-0.68-4.46-8.89-50.91-46.15-53.73-50.41-3.81-87.79-1.88-106-11q-0.47-0.23-0.9-0.48c4.38-9.06 7.98-18.58 10.7-28.46 8.54 0.66 36.99 4.04 62.71 8.05z"/>
				<path id="Shape 101" fill-rule="evenodd" class="s1" d="m257 1359l-0.34-60.99c5 0.67 7.85 0.64 16.34-0.01 11.56-0.88 17.39-4.07 20-6 2.61-1.93-6.69 19.98-1 41q0.18 0.65 0.34 1.28z"/>
				<path id="Shape 99" fill-rule="evenodd" class="s3" d="m386 1149c3.32 20.99 7.7 81.33 13.84 110.08l-54.67 38.24c-7.68-21.69-19-91.2-14.17-129.32 3.24-25.57-7.43-74.65-21.51-91.76 16.43-5.47 31.73-13.4 45.47-23.34 7.68 20.64 27.86 76.01 31.04 96.1z"/>
				<path id="Shape 93" fill-rule="evenodd" class="s0" d="m467 1135c0 0 22.54 24.04 33 42 8.06 13.84-5.69-11.63-22.89-3.73-5.46 2.51-8.8 5.41-17.52 23.63-11.04 23.09-7.91 22.51-9.39 25.04-0.89 1.52-0.6-5.11-0.06-19.01 1.13-28.79 12.33-63.66 16.86-67.93z"/>
				<g id="&lt;Group&gt;">
				</g>
				<path id="Shape 91" fill-rule="evenodd" class="s2" d="m445 1007c11.8 1.42 42.86 1.98 58 6 15.14 4.02 22.86 11.95 31 27 8.14 15.05 6.28 19.48 8 21 1.72 1.52-28.92 6.31-42 2-6.65-2.19-22.8-15.4-37.31-41.17-8.16-14.49-29.49-16.25-17.69-14.83z"/>
				<path id="Shape 36" fill-rule="evenodd" class="s2" d="m669.3 855.51c53.69 5.06 52.82-25.22 52.82-25.22 2.51 1.25 6.37 53.35-84.12 44.71-84.7-8.09-115.06-29.02-153.89-30.07l58.53-40.87c20.21 12.08 82.29 47.27 126.66 51.45z"/>
			</g>
			<path id="Shape 1" fill-rule="evenodd" class="s1" d="m703 290v111.71c-13.63-5.33-36.95-14.33-55-20.71-22.52-7.96-31.07-24.02-33.33-29.29z"/>
			<path id="Shape 6" fill-rule="evenodd" class="s1" d="m513.71 698.78c3.45-7.98 10.38-13.52 24.29-12.78 18.44 0.98 27.24 21.6 30 29.74l-17.61 12.36q0.01-0.54 0.01-1.1c-0.06-10.43-5.08-22.26-17.4-22-14.33 0.3-14 16-14 16 0 0-9.34-12.84-5.29-22.22z"/>
			<path id="Batang 2" fill-rule="evenodd" class="s3" d="m256.5 1064q-0.58 0-1.17 0l-0.33-59.11 148.24-103.5q0.76 7.45 0.76 15.11c0 81.57-65.93 147.5-147.5 147.5z"/>
			<path id="Shape 19" fill-rule="evenodd" class="s3" d="m257 934l-1-165q0.25 0 0.5 0c55.24 0 103.32 30.25 128.59 75.11z"/>
			<path id="Shape 17" fill-rule="evenodd" class="s3" d="m342.26 542.04l59.54-41.6q0.1 0.28 0.2 0.56c20.25 55.88-35.72 130.55-65 171-26.89 37.14-26.32 77.74-26.05 84.13-17.24-5.92-35.74-9.13-55.01-9.13q-0.04 0-0.07 0l-0.03-4.33c5.64-55.81 75.7-181.64 85.33-198.7 0.71-1.27 1.09-1.93 1.09-1.93z"/>
			<path id="Shape 3" fill-rule="evenodd" class="s0" d="m539 468c32.52 2.45 83.66 2.57 92 26 6.47 18.17 1.76 47.11-5.39 67.22-7.36 12.88-19.77 35.75-30.14 38.12-2.64 0.6-6.49-2.44-7.75-5.98-4.2-11.75 3.09-22.66 3.09-22.66 0 0-6.12-2.96-13.36 14.36-7.24 17.32-3.56 41.76 5.55 42.94 2.08 0.27 5.02-0.88 8.33-2.82-7.15 20.17-9.52 44.72 3.24 71.92l-9.66 6.78c-2.34-3.14-48.06-65.73-18.24-130.06 21.67-46.75 10.31-64.62-18.31-76.21-11.79-4.78-39.13 4.05-54.08-6.49-22.52-15.88-32.44-24.81-36.8-29.58l31.06-21.71c7.54 8.6 25.92 26.32 50.46 28.17z"/>
		</g>
		<g id="Batang 3">
			<path id="Batang 3&amp;4 copy 3" fill-rule="evenodd" class="s1" d="m816 1359l-2-336.88 51.31-35.82q-0.31 5.81-0.31 11.7c0 48.92 16.27 93.97 43.7 130.07q-7.05 4.28-14.7 9.93c-37.63 27.88-40 89-40 89 38.45 7.72 78.34-14.41 98.94-35.54 3.69-3.79 6.84-8.34 9.5-13.34 21.01 13.73 44.57 23.88 69.84 29.58zm96-96c-7.19 0-13-5.81-13-13 0-7.19 5.81-13 13-13 7.19 0 13 5.81 13 13 0 7.19-5.81 13-13 13zm-61-124c-7.19 0-13-5.81-13-13 0-7.19 5.81-13 13-13 7.19 0 13 5.81 13 13 0 7.19-5.81 13-13 13z"/>
			<path id="Shape 66" fill-rule="evenodd" class="s2" d="m869 1214c0 0 2.51-49.22 39.13-72.11 24.74-15.46 50.12-20.57 49.11-20.05-50.28 26.13-59.71 63.01-59.71 63.01 26.43-1.38 53.21-33.87 66.91-52.37-3.11 15.76-8.03 41.28-28.91 58.18-33.92 27.45-66.53 23.34-66.53 23.34z"/>
			<g id="&lt;Group&gt;">
				<g id="&lt;Group&gt;">
					<path id="Shape 190" fill-rule="evenodd" class="s0" d="m965 995q-0.87 3.97-1.44 7.78l-25.83-7.6 28.21-4.02q-0.53 1.96-0.94 3.84zm48.59 96.64c4.04 1.43 6.58 2.71 10.59 3.82l-31.54 72.73q-9.47-4.66-18.33-10.26l2.67-16.36 20.92-52.96 2.17-3.26c4.36 2.55 8.9 4.64 13.52 6.29zm182.41-13.64q20.45-6.05 37.78-11.26l-84.76 59.3-15.71-31.41c19.63-4.22 40.32-10.01 62.69-16.63zm-129.05 105.45l-2.75-81.88c11.49 0.56 23.12 0.07 35.04-1.25l9.69 53.76zm-95.95-74.45c-2.66-0.09-8.52-0.36-17.06 1.08l39.61-26.23-18.79 42.4c0.13-10.15-1.34-17.17-3.76-17.25zm-89-118.75q0-2 0.04-4l27.96 8.75-27.72 5.79q-0.27-5.23-0.28-10.54zm0.64-16.05l160.06-111.75c-19.89 25.98-60.35 81.53-74.23 120.68l-43.47 8.87-42.72-12.32q0.14-2.75 0.36-5.48zm174.28 130.04l1.76 83.1c-9.92-1.07-18.36-1.66-27.79-4.13zm-117.34 6.23l-13.57 4.45q-0.06-0.07-0.12-0.14l55.29-44.89q4.15 4.68 8.89 8.53zm22.64-89.49l0.21-0.41c0.29 10.63 2.39 20.18 5.86 28.62l-64.7 31.22c-9.07-17.76-15.54-37.08-18.91-57.45zm-36.76-22.49l37.37 10.38q-0.29 3.14-0.38 6.17l-78.71 1.57q-0.61-4.64-1.01-9.34zm45.47 56.42q0.84 1.63 1.75 3.19l-61.38 36.03q-1.77-2.86-3.43-5.79zm4.84 7.98c0.45 0.64 1.4 2.03 1.87 2.65l-57.5 41.76q-2.32-3.17-4.52-6.45zm53.82 33.83c1.16 0.27 3.73 1.07 4.98 1.19l-24.75 77.77q-5.27-2-10.4-4.29zm10.82 2.5c2.57 0.44 6.95 0.79 9.52 1.12l-25.68 80.18q-3.21-0.94-6.36-1.98zm88.58 1.8l13.78 29.4-13.78 9.64zm-6.13 43.34l-7.91 5.53-8.55-50.44q7.72-1.06 15.64-2.54z"/>
				</g>
			</g>
			<path id="Shape 80" fill-rule="evenodd" class="s0" d="m1322.53 1004.67l-0.08 0.05q-0.1-0.16-0.1-0.16c0 0-18.21-8.27-89.35 34.44-17.91 10.75-83.85 49.33-173 42-89.15-7.33-70.67-90.03-70.29-69.09 0.63 34.95 62.29 39.09 62.29 39.09 0 0-0.49-9.12-20-22-19.51-12.88-47.08-22.88-35-64 12.08-41.11 69-46 69-46 83.95-9.57 78 55 78 55 0 0 0.77-22.39-34-28-22.69-3.66-50.5 16.78-30 47 5.38 7.93 27.59 24.52 64 31 36.41 6.48 124.54-29.87 154-45 29.46-15.13 54-4 54-4 0 0-13.1 2.01-17 12-3.9 9.99 4.47 25.95 19 27 14.53 1.05 31-4 31-4l8.1 18.63q-8.91 6.73-17.21 14.16zm-1089.52-1289.66"/>
			<g id="obor">
				<path id="Shape 81" fill-rule="evenodd" class="s3" d="m1327 890c0 0 32.39-15 51-22 18.61-7 52-16 52-16l3 32c0 0-28.54 7.88-51 17-22.46 9.12-39 18-39 18z"/>
				<path id="Shape 82" fill-rule="evenodd" class="s3" d="m1356 919c0 0 14.59-8.54 31-14 16.41-5.46 31-9 31-9l20.58 104.89c-12.31 5.92-24.11 12.75-35.29 20.41z"/>
				<path id="Shape 83" fill-rule="evenodd" class="s3" d="m1337 870c0 0-8.3-12.58-19-7-10.7 5.58-26-5-26-5 0 0-15.11-17.75-15-32 0.11-14.25 8.63-29.38 16-33 7.37-3.62 8-8 8-8 0 0 17.69 13.47 38 8 20.31-5.47 10-19 10-19 0 0 13.43 12 7 24-6.43 12-12 18-12 18 0 0 39.32-16.74 24-40-15.32-23.26-74.9-41.78-70-73 4.9-31.22 59.52-38.15 70-38 10.48 0.15 32.04 3.67 44 10 11.96 6.33 10 10 10 10 0 0-17.68-17.03-55-1-37.32 16.03-10.39 39.62 2 44 12.39 4.38 83.23 22 86 52 2.77 30-40.7 45.06-49 56-8.3 10.94 2.03-14.6 9-19 6.97-4.4 19.78-26.78-3-38-22.78-11.22-24-13-24-13 0 0 17.4 24.67 5 42-12.4 17.33-23.65 25.6-35 33-11.35 7.4-21 19-21 19z"/>
				<path id="Shape 84" fill-rule="evenodd" class="s3" d="m1412 723c0 0-46.15 7.7-39.62-15.71 6.54-23.42 43.62-14.29 43.62-14.29 0 0 45.69 5.64 51 0 5.31-5.64 10.82-16.88-15-26-25.82-9.12-37.93-19.27-37-30 0.89-10.25 7.52-16.84 14.18-21.68 6.66-4.84 26.82-12.32 26.82-12.32 0 0-19.95 9.68-17 30 2.95 20.32 45.96 3.93 64 4 18.28 0.08 20.71 16.83 17.67 29.39-3.14 12.99-17.73 21.31-27.16 25.44-10.59 4.64-25.64 9.42-45.69 11.75-19.93 2.31-43.28-0.17-46.82 6.42-7.09 13.23 11 13 11 13z"/>
				<path id="Shape 85" fill-rule="evenodd" class="s2" d="m1164 795c0 0 11.15 2.3 21-1 9.85-3.3 74.03-31.32 95.03-35.73 19.19-4.02 39.69-2.04 46.97 5.73 7.28 7.77 5 16 5 16 0 0-10.81-14.69-38 4-27.19 18.69-45.17 36-79 31-33.83-5-51-20-51-20z"/>
				<g id="&lt;Group&gt;">
					<path id="Shape 96" fill-rule="evenodd" class="s0" d="m1593 634c0-7.19-5.81-13-13-13-7.19 0-13 5.81-13 13 0 7.19 5.81 13 13 13 7.19 0 13-5.81 13-13zm-48-11c0-7.19-5.81-13-13-13-7.19 0-13 5.81-13 13 0 7.19 5.81 13 13 13 7.19 0 13-5.81 13-13zm-55-10c0-7.19-5.81-13-13-13-7.19 0-13 5.81-13 13 0 7.19 5.81 13 13 13 7.19 0 13-5.81 13-13z"/>
					<path id="Shape 96" fill-rule="evenodd" class="s0" d="m1225 769c-5.53 0-10-4.47-10-10 0-5.53 4.47-10 10-10 5.53 0 10 4.47 10 10 0 5.53-4.47 10-10 10zm37-15c-4.42 0-8-3.58-8-8 0-4.42 3.58-8 8-8 4.42 0 8 3.58 8 8 0 4.42-3.58 8-8 8zm31-10c-3.32 0-6-2.68-6-6 0-3.32 2.68-6 6-6 3.32 0 6 2.68 6 6 0 3.32-2.68 6-6 6z"/>
				</g>
			</g>
		</g>
		<g id="Shape 123">
			<g id="&lt;Group&gt;">
				<path id="Shape 186" fill-rule="evenodd" class="s0" d="m1457.27 1021.33c14.07 29.88 56.47 54.3 59.83 48.84 3.31-5.38 16.38-25.94 14.04-68.12q11.69-1.13 23.67-1.14 1.61 0 3.22 0.02l0.94 94.1q-2.07-0.05-4.16-0.05c-22.51 0-43.84 5.01-62.92 13.98l-69.56-68.66c11.04-7.24 22.72-13.6 34.94-18.97zm165.16-10.87c-8.92 31.27 4.37 75.71 10.4 74.12 6.22-1.64 30.64-7.7 58.7-41.45q11.11 7.61 21.28 16.39l-63.24 69.74c-17.85-14.91-39.29-25.68-62.84-30.84l14.73-93.03q10.67 2.08 20.97 5.07zm139.55 107.26c-27.21 18.21-45.52 62.04-39.77 64.65 5.7 2.59 27.4 12.84 68.29 5.64q3.32 14.34 4.89 29.28l-93.82 7.51c-3.07-25.29-12.49-48.6-26.64-68.27l72.04-60.82q8.1 10.57 15.01 22.01zm29.3 176.4c-25.61-4.8-53.88-0.07-57.04 4.7l-34.86-24.91q1.48-6.89 2.3-14.01l92.55 17.76q-1.2 8.33-2.95 16.46zm-88.63-51.31q0-5.54-0.4-10.97l93.82-6.77q0.44 6.03 0.58 12.15l-94.03 8.63q0.03-1.51 0.03-3.04zm-224.14-126.7l-80.57-57.56q8.33-7.09 17.28-13.42l69.78 66.87-0.02 0.43q-3.29 1.76-6.47 3.68zm76.3 12.04c63.41 0 114.66 51.25 114.66 114.66q0 4.78-0.38 9.46l-160.31-114.53c14.09-6.17 29.65-9.59 46.03-9.59zm148.19 124.85l93.7-7.81q-0.13 12.81-1.55 25.27zm-137-251.83q14.42 0.66 28.34 2.95l-15.01 92.87q-6.57-1.09-13.33-1.6zm152.06 63.01q5.88 5.38 11.4 11.13l-68.8 64.22q-2.61-2.68-5.35-5.22zm15.79 15.83q4.85 5.33 9.37 10.94l-72.59 59.89q-2.69-3.39-5.58-6.61z"/>
			</g>
			<path id="Shape 74 copy 2" fill-rule="evenodd" class="s1" d="m1554.81 1128.15c63.41 0 114.66 51.25 114.66 114.66q0 4.78-0.38 9.46l-160.31-114.53c14.09-6.17 29.65-9.59 46.03-9.59z"/>
			<path id="Shape 66" fill-rule="evenodd" class="s2" d="m1476.28 929.59c0 0 41.54 26.52 43.33 69.67 1.2 29.15-6.91 53.74-6.87 52.6 2.16-56.62-25.24-83.06-25.24-83.06-11.86 23.66 3.13 63 12.44 84.06-12.17-10.5-31.91-27.4-36.27-53.9-7.09-43.06 12.61-69.37 12.61-69.37z"/>
			<path id="Shape 66" fill-rule="evenodd" class="s2" d="m1700.27 954.65c0 0 11.77 47.86-16.7 80.33-19.24 21.93-42.08 34.14-41.26 33.34 40.62-39.5 39.03-77.54 39.03-77.54-24.91 8.94-41.2 47.76-48.99 69.43-1.56-16-4.2-41.85 10.93-64.05 24.58-36.05 56.99-41.51 56.99-41.51z"/>
			<path id="Shape 66" fill-rule="evenodd" class="s2" d="m1856.61 1124.36c0 0-21.14 44.52-63.73 51.67-28.77 4.82-54.18-0.16-53.04-0.26 56.44-4.92 79.26-35.39 79.26-35.39-24.95-8.83-62.12 10.95-81.85 22.81 8.9-13.38 23.21-35.08 48.96-42.71 41.84-12.39 70.4 3.88 70.4 3.88z"/>
			<path id="Batang 3&amp;4 copy" fill-rule="evenodd" class="s1" d="m1554 938l2-18c0 0 72.65-13.86 77.81-63.59l232.77 165.71-0.49 90.57c-25.23-12.37-55.7-11.44-79.47-5.14-20.1-34.43-47.66-63.96-80.48-86.38 16.8-36.72 4.75-83.29 4.75-83.29-32.39 3.06-59.83 26.08-76.02 48.78-25.28-7.87-52.16-12.11-80.06-12.11q-14.01 0-27.64 1.4c-2.96-9.49-7.67-18.22-13.11-26.01 16.7-4.47 39.94-11.94 39.94-11.94zm264.24 366.56q-0.96-0.68-1.97-1.32c4.45-19.41 6.81-39.64 6.81-60.43 0-21.25-2.47-41.93-7.12-61.74 23.29-10.21 40.29-31.38 50.01-46.35l-1.26 231.97c-8.67-26.82-28.67-49.61-46.47-62.13zm-190.24-364.56c-8.3 0-15-6.71-15-15 0-8.29 6.7-15 15-15 8.3 0 15 6.71 15 15 0 8.29-6.7 15-15 15zm153 92c-8.3 0-15-6.7-15-15 0-8.29 6.7-15 15-15 8.3 0 15 6.71 15 15 0 8.3-6.7 15-15 15z"/>
			<path id="Shape 66" fill-rule="evenodd" class="s2" d="m1853.84 1383.85q0 0-0.5 0.05l-33.05-23.61q0.24 0.03 0.24 0.03c-5.57-25.88-41.9-47.15-62.35-57.73 16.06 0.56 42.04 1.36 62.04 19.29 32.49 29.13 33.62 61.97 33.62 61.97z"/>
			<path id="Shape 97" fill-rule="evenodd" class="s1" d="m1866.58 287.2v336.88l-54.07 37.83c1.35-22.98 3.45-97.26-20.51-155.91q-0.26-0.64-0.53-1.27c31.46-27.97 36.91-79.34 36.91-79.34-30.42-8.25-63.07 2.68-86.12 17.52-22.14-17.2-44.35-26.91-54.52-30.84zm-64.58 102.8c-8.29 0-15-6.71-15-15 0-8.3 6.71-15 15-15 8.3 0 15 6.7 15 15 0 8.29-6.7 15-15 15zm34 135c-8.29 0-15-6.71-15-15 0-8.3 6.71-15 15-15 8.3 0 15 6.7 15 15 0 8.29-6.7 15-15 15z"/>
			<path id="Shape 185" fill-rule="evenodd" class="s0" d="m1709.01 734.31c5.32-15.22 10.37-32.99 14.34-53.31l61.89-0.02zm16.09-62.19q0.27-1.58 0.51-3.14l63.83-3.42c-0.4 4.12-0.82 7.62-1.19 10.42l-63.79-0.91c0.18-1.02 0.46-1.92 0.64-2.95zm-91.1-141.11q-2.98-0.98-6.47-1.71l4.62-44.31 41.11-58.11c4.4 1.98 10.13 4.73 16.66 8.27l-52.91 96.89q-1.54-0.55-3.01-1.03zm1.98-82.79l27.42-19.15-29.92 43.08zm-123.07 85.93l116.09-81.06-3.57 30.66-29.9 43.05c-28.3-0.17-61.78 4.27-82.62 7.35zm107.31-5.61c-5.41-0.86-11.4-1.37-17.76-1.59l21.48-30.35zm103.86-71.12c-22.89 24.74-26.92 77.24-20.31 77.91 6.4 0.65 31.39 3.55 69.54-18.2 2.98 6.61 5.45 13.6 7.24 20.97l-77.83 40.06c-13.37-16.88-30.39-29.16-46.06-37.43l61.6-87.71q2.9 2.12 5.82 4.4zm2.29 206.56c0.42-3.28 0.29-4.48 0.48-7.63l63.86-9.22q-0.27 5.96-0.65 11.07zm0.72-14.62c0.06-8.5-0.74-16.49-2.25-24l65.43-20.62c0.81 12.97 0.94 24.78 0.69 35.08zm-4.26-32.31q-0.9-3.18-1.97-6.23l67.87-24.21q0.56 5.21 0.97 10.23zm-4.5-12.76c-2.87-6.78-6.35-13.05-10.26-18.85l74.29-39.24c2.33 11.12 4.09 21.87 5.4 32.12zm-66.93-66.21q-4.07-1.96-7.93-3.55l52.9-95.76c4.99 2.89 10.3 6.2 15.76 9.92z"/>
			<path id="Shape 66 copy" fill-rule="evenodd" class="s2" d="m1812.55 437.37c0 0-5.79 48.94-43.86 69.33-25.72 13.78-51.39 17.18-50.34 16.72 51.91-22.71 63.78-58.88 63.78-58.88-26.46-0.38-55.35 30.25-70.25 47.79 4.15-15.52 10.76-40.65 32.73-56.12 35.68-25.12 67.94-18.84 67.94-18.84z"/>
			<path id="Shape 75" fill-rule="evenodd" class="s0" d="m1051 861c0 0 29.02-25.06 67-32 37.98-6.94 74-6 74-6 0 0-11.46 2.41-28.64 8.11-9.12 3.02-23.36 9.89-23.36 9.89l35.98 0.41c0 0-29.21 17.42-70.98 22.59-33.37 4.13-54-3-54-3z"/>
			<path id="Shape 76" fill-rule="evenodd" class="s2" d="m1071 895l191-66c0 0 1.85 10.54 6 18 4.15 7.46 10 15 10 15 0 0-47.27 15.87-76.21 65.63-25.4 43.68-20.09 55.28-20.09 55.28l-24.7 9.09c0 0 27.62-26.51-14-66-41.62-39.49-72-31-72-31z"/>
			<path id="Shape 77" fill-rule="evenodd" class="s2" d="m1206 974c0 0 7.99-44.63 35.33-65.28 27.34-20.66 43.49-20.42 43.49-20.42 0 0-17.45 11.25-27.66 26.19-10.75 15.73-8.16 21.51-8.16 21.51 0 0 14.84-1.17 26.21-10.86 11.37-9.7 22.79-26.14 22.79-26.14 0 0-0.94 43.09-40.69 58.83-39.75 15.73-51.31 16.17-51.31 16.17z"/>
			<path id="Shape 78" fill-rule="evenodd" class="s2" d="m1260 980c0 0 23.98-17.26 41-36 17.02-18.74 24-32 24-32 0 0 11.05 19.8 14 24 2.95 4.2 17 24 17 24 0 0-26.4 0.84-50 7-24.87 6.5-46 13-46 13z"/>
			<path id="Shape 87" fill-rule="evenodd" class="s2" d="m1557 902c0 0 9.9-28.32 24.69-21.32 4.26 2.01-21.82-13.13-46.69 2.32-24.87 15.45-23 24-23 24 0 0-58.59-13.23-54-52 4.59-38.77 34.36-65.47 58.32-67.6 11-0.98 20.27 7.29 18.16 17.99-2.1 10.73-9.75 16.65-9.75 16.65 0 0 8.56-29.29-24.23-12.04-32.79 17.25-17.24 48.05 2.19 43.41 21.23-5.08 50.45-16.55 62.31-18.41 11.86-1.86 38.62 4.52 45 11 6.38 6.48 6.97 24.94-13 39-19.97 14.06-40 17-40 17z"/>
			<path id="Shape 90" fill-rule="evenodd" class="s2" d="m1396 636c12.99 8.19 25 29 25 29 0 0-47.92-18.97-79.74-11.02l35.69-24.92c4.09 0.39 11 1.86 19.05 6.94z"/>
			<path id="Shape 94" fill-rule="evenodd" class="s2" d="m1593.05 668.37c22.45-2.36 32.8-21.33 28.95-41.37-3.85-20.04-24.73-24.11-40-26-33.55-4.16-125.67-11.12-146.69-12.68l53.9-37.64c18.87-2.59 51.68-6.36 90.79-7.68 33.73-1.14 69.33 5.98 90.06 24.56 31.83 28.55 36.19 75.31 4.59 99.05-22.56 16.95-57.01 25.99-80.32 24.25-18.05-1.34-32.59-6.03-41.98-19.83-7.44-10.93 1.65-28.03 1.65-28.03 0 0 0.43 29.42 39.05 25.37z"/>
			<path id="Shape 88" fill-rule="evenodd" class="s2" d="m1490 777c0 0 52.06-36.75 75.65-46.25 22.28-8.97 95-22.71 121.35-45.75 26.35-23.04 32-37 32-37 0 0-25.11 95.34-84 118-58.89 22.66-86.17 0.62-123 4-7.92 0.73-22 7-22 7z"/>
			<path id="Shape 89" fill-rule="evenodd" class="s2" d="m1426 727c0 0 7.57-2.05 16.17 10.32 8.6 12.36 14.96 29.85 27.83 27.68 12.87-2.17 25.53-8.79 37-23 11.86-14.68 30.01-39.24 34-39 3.99 0.24-10.95 0.4-25 1-14.05 0.6-30.62 0.4-35 16-1.64 5.83 2.26 17.71 2.26 17.71 0 0-19.87-17.33-35.26-16.71-12.49 0.51-22 6-22 6z"/>
		</g>
	</g>
</svg>